<?xml version="1.0" standalone="no"?>
<!DOCTYPE svg PUBLIC "-//W3C//DTD SVG 20010904//EN"
 "http://www.w3.org/TR/2001/REC-SVG-20010904/DTD/svg10.dtd">
<svg version="1.0" xmlns="http://www.w3.org/2000/svg"
 width="252.000000pt" height="252.000000pt" viewBox="0 0 252.000000 252.000000"
 preserveAspectRatio="xMidYMid meet">
<metadata>
Created by potrace 1.14, written by Peter Selinger 2001-2017
</metadata>
<g transform="translate(0.000000,252.000000) scale(0.100000,-0.100000)"
fill="#000000" stroke="none">
<path d="M1158 1753 c-16 -3 -28 -8 -28 -13 0 -5 -7 -7 -15 -4 -9 4 -15 0 -15
-7 0 -11 -3 -11 -10 1 -5 8 -10 10 -10 4 0 -12 -59 -41 -72 -36 -5 1 -8 -2 -8
-6 0 -8 -51 -36 -58 -32 -2 1 -10 -7 -18 -17 -7 -10 -14 -14 -14 -10 0 5 -13
-1 -29 -12 -16 -12 -34 -21 -40 -21 -6 0 -11 -4 -11 -10 0 -5 -3 -9 -7 -8 -9
1 -40 -9 -66 -23 -11 -6 -21 -8 -24 -5 -3 3 -14 1 -25 -5 -24 -13 -91 -21
-263 -33 -27 -2 -70 -7 -95 -11 -25 -4 -51 -8 -57 -8 -7 0 -13 -4 -13 -8 0 -4
-8 -6 -17 -5 -10 2 -33 -5 -51 -15 -17 -10 -35 -18 -38 -18 -3 1 -28 -17 -56
-40 -28 -23 -48 -41 -44 -41 4 0 -5 -12 -19 -27 -14 -15 -25 -33 -25 -40 0 -6
-5 -13 -12 -15 -6 -2 -13 -30 -16 -63 -4 -52 -3 -57 11 -44 8 8 13 17 11 21
-3 4 4 15 16 25 11 10 20 22 20 28 1 21 90 105 112 105 5 0 4 -10 -3 -21 -6
-12 -13 -36 -16 -53 -3 -17 -8 -33 -11 -36 -8 -5 -13 -25 -15 -52 -1 -10 -6
-18 -11 -18 -5 0 -7 -3 -3 -6 3 -3 -1 -24 -9 -47 -8 -23 -12 -47 -9 -55 2 -7
0 -10 -5 -7 -6 3 -10 1 -10 -4 0 -6 0 -14 0 -18 0 -4 11 -8 26 -10 16 -3 23 0
19 7 -3 5 -2 10 4 10 5 0 12 18 16 40 4 22 11 42 16 46 5 3 7 9 4 14 -3 5 -1
11 5 15 5 3 10 1 10 -6 0 -8 4 -9 13 0 10 8 17 7 27 -2 10 -10 11 -9 5 3 -8
13 -7 13 8 1 12 -9 17 -10 17 -2 0 9 5 9 20 1 15 -8 20 -8 20 2 0 23 20 -15
20 -39 0 -13 5 -23 12 -23 6 0 9 -3 6 -6 -3 -3 -3 -17 1 -32 5 -20 14 -26 35
-28 25 -1 27 1 21 25 -4 14 -7 36 -8 48 -1 11 -5 19 -9 17 -4 -3 -7 4 -7 13 1
10 -11 50 -25 88 -14 39 -26 78 -26 88 0 9 -4 17 -9 17 -6 0 -10 8 -10 18 1 9
-2 27 -6 38 -5 17 -2 23 20 28 14 4 30 4 35 1 6 -4 10 -2 10 3 0 5 21 10 47
11 85 4 119 8 131 15 6 3 13 2 17 -4 4 -7 12 -7 26 0 13 8 19 7 19 0 0 -7 5
-8 13 -3 6 4 23 9 37 11 49 6 55 8 68 15 6 5 17 5 22 2 6 -3 10 -1 10 4 0 6 3
10 8 9 13 -4 82 26 82 35 0 5 6 7 14 4 8 -3 16 -3 18 1 3 9 84 57 143 86 22
11 43 25 47 30 4 6 8 8 8 4 0 -4 17 0 37 9 21 8 47 17 58 19 11 2 31 7 45 10
34 9 211 11 216 2 2 -3 14 -4 26 0 12 3 19 1 15 -4 -3 -6 10 -9 29 -9 19 1 37
-2 40 -7 3 -4 16 -8 29 -8 13 0 27 -4 30 -10 3 -5 17 -10 31 -10 15 0 23 -4
19 -10 -4 -6 -3 -10 2 -9 24 4 53 -3 66 -16 8 -8 17 -11 21 -8 3 3 11 2 18 -4
7 -5 33 -16 58 -23 25 -7 51 -18 58 -23 6 -5 12 -6 12 -3 0 4 10 1 23 -6 12
-7 24 -13 27 -13 3 -1 18 -7 33 -13 16 -7 34 -12 42 -12 8 0 16 -4 19 -9 3 -5
30 -15 58 -21 29 -7 57 -15 63 -18 11 -7 38 -11 83 -13 17 0 32 -4 32 -9 0 -4
14 -6 30 -5 19 2 29 -2 27 -8 -2 -6 -20 -11 -40 -10 -20 0 -37 -4 -37 -9 0 -6
-6 -8 -13 -5 -15 5 -31 -11 -35 -36 -3 -17 1 -18 35 -12 76 13 94 13 107 -1 8
-7 16 -10 20 -7 3 4 7 -2 7 -13 1 -10 3 -28 4 -39 2 -17 -5 -20 -42 -23 -59
-3 -113 -30 -139 -70 -22 -32 -27 -84 -11 -109 5 -7 6 -13 2 -13 -3 0 5 -11
17 -24 13 -12 29 -21 36 -18 6 2 12 0 12 -5 0 -10 28 -9 77 2 18 4 31 11 28
15 -3 4 4 10 14 13 13 3 21 -1 24 -13 3 -11 13 -16 28 -15 24 2 24 2 24 133 1
72 -2 129 -6 127 -3 -2 -5 9 -4 24 2 32 -47 97 -65 86 -5 -3 -10 -1 -10 5 0 6
-4 8 -10 5 -5 -3 -10 0 -10 7 0 10 19 13 73 13 39 0 77 3 84 8 7 5 16 6 22 3
11 -7 21 17 21 54 0 16 -7 30 -15 34 -8 3 -15 1 -15 -4 0 -6 -5 -10 -11 -10
-5 0 -7 6 -3 13 6 9 5 9 -7 1 -20 -17 -99 -24 -99 -10 0 8 -2 8 -8 0 -4 -6
-16 -10 -27 -8 -11 2 -45 6 -75 8 -63 6 -99 12 -132 25 -13 5 -26 9 -31 10
-26 3 -64 15 -74 23 -7 5 -17 7 -23 3 -5 -3 -10 -1 -10 5 0 6 -4 8 -10 5 -5
-3 -10 -1 -10 4 0 6 -3 10 -7 9 -9 -2 -82 21 -98 31 -5 3 -13 6 -17 7 -5 1
-10 3 -13 4 -3 1 -8 4 -12 5 -5 1 -24 8 -43 16 -19 7 -38 12 -42 11 -5 -1 -8
3 -8 10 0 6 -3 9 -6 6 -3 -4 -17 0 -31 7 -15 8 -30 12 -35 9 -4 -3 -8 0 -8 5
0 6 -3 10 -7 9 -5 -1 -32 6 -62 15 -29 9 -57 14 -62 11 -5 -3 -11 1 -14 8 -4
11 -40 14 -163 14 -86 0 -169 -1 -184 -3z m-914 -415 c-3 -4 -1 -8 5 -8 5 0 8
-8 7 -17 -2 -10 1 -21 6 -24 5 -3 10 -20 11 -37 1 -18 7 -32 12 -32 6 0 4 -4
-3 -9 -11 -6 -51 -7 -94 -2 -5 1 -8 8 -8 17 0 8 4 13 9 10 4 -3 7 6 5 19 -1
14 2 25 7 25 5 0 8 3 8 8 -1 4 0 10 1 15 1 4 3 10 4 15 9 38 19 53 26 41 5 -7
6 -17 4 -21z m2115 -180 c-2 -26 -7 -48 -12 -48 -6 0 -8 -3 -4 -6 8 -8 -16
-33 -25 -27 -5 2 -8 -1 -8 -7 0 -7 -6 -10 -14 -7 -7 3 -19 0 -25 -6 -8 -8 -11
-8 -11 1 0 7 -7 12 -15 12 -8 0 -15 1 -16 3 -8 33 -8 87 1 87 6 0 8 5 5 10 -6
9 8 14 28 11 4 0 7 3 7 8 0 8 25 14 78 17 9 0 12 -13 11 -48z"/>
<path d="M1229 1526 c-1 -6 -2 -22 -3 -36 -1 -14 -5 -31 -9 -37 -5 -8 -3 -13
3 -13 6 0 8 -5 4 -12 -5 -7 -9 -40 -11 -73 -1 -33 -3 -86 -4 -117 -2 -36 -7
-55 -13 -50 -6 3 -5 -1 2 -10 9 -11 10 -18 2 -23 -7 -4 -7 -12 0 -24 5 -10 6
-21 3 -25 -12 -11 -11 -75 1 -85 15 -13 58 -2 53 13 -2 6 0 21 4 33 5 13 4 25
-2 28 -5 4 -6 12 -2 18 4 6 8 44 9 83 1 40 5 77 9 83 3 6 0 11 -7 11 -8 0 -9
3 -3 8 6 4 10 33 10 65 0 31 3 57 7 57 7 0 12 -24 9 -42 0 -5 3 -8 7 -8 7 0
11 -16 14 -57 1 -7 5 -13 10 -13 5 0 7 -4 4 -8 -2 -4 4 -27 14 -50 11 -24 15
-40 9 -36 -6 3 -5 -4 2 -17 7 -13 12 -27 11 -31 -1 -5 2 -8 8 -8 5 0 7 -6 4
-14 -3 -8 0 -17 6 -21 8 -5 7 -11 -2 -23 -10 -12 -10 -14 0 -8 11 7 17 -11 13
-37 -1 -5 3 -6 9 -2 5 3 10 0 10 -8 0 -17 19 -26 38 -20 6 3 12 11 12 19 0 8
5 14 12 14 6 0 9 3 5 6 -6 6 25 102 44 137 5 10 7 22 4 27 -3 5 -1 11 5 15 6
4 8 11 5 16 -4 5 -1 9 6 9 7 0 10 3 6 6 -3 4 0 22 8 40 8 19 14 37 15 39 6 43
15 65 27 65 13 0 13 -2 2 -17 -10 -11 -10 -14 -1 -9 16 9 16 -6 0 -23 -10 -11
-10 -13 0 -7 6 4 12 3 12 -1 0 -5 -6 -15 -12 -22 -8 -8 -8 -11 -2 -8 11 6 12
-4 18 -195 0 -27 5 -48 9 -48 5 0 5 -6 0 -12 -14 -24 -11 -36 13 -47 39 -17
51 -6 47 47 -1 26 -5 85 -7 132 -10 162 -17 285 -19 310 -1 19 -8 25 -27 27
-29 2 -73 -7 -66 -14 3 -4 -10 -48 -50 -163 -3 -8 -5 -16 -5 -17 0 -2 -6 -18
-14 -37 -8 -18 -11 -36 -8 -40 4 -3 1 -6 -5 -6 -7 0 -11 -3 -10 -7 4 -12 -24
-107 -33 -117 -5 -6 -9 2 -9 18 0 15 -4 25 -10 21 -6 -4 -9 3 -7 17 2 12 -2
37 -9 54 -7 17 -10 34 -7 38 4 3 1 6 -6 6 -7 0 -10 4 -6 9 3 5 1 12 -4 16 -6
3 -8 12 -4 20 3 8 0 15 -6 15 -6 0 -10 3 -9 8 2 8 -28 111 -45 153 -9 22 -17
26 -49 26 -21 0 -39 -5 -39 -11z"/>
<path d="M735 1404 c-11 -9 -20 -27 -20 -42 0 -20 -5 -27 -18 -26 -9 1 -17 -1
-18 -5 0 -3 -2 -14 -4 -23 -2 -10 5 -18 19 -22 20 -5 22 -11 20 -61 -1 -36 2
-55 10 -55 7 0 7 -3 1 -8 -13 -9 -16 -72 -4 -72 6 0 8 -4 5 -9 -9 -13 26 -50
49 -52 45 -3 55 1 55 25 0 18 -4 23 -18 19 -33 -8 -61 47 -38 76 8 11 8 13 0
8 -13 -7 -12 73 1 93 5 8 4 11 -3 6 -6 -4 -10 1 -9 11 1 13 10 18 35 19 18 1
39 7 45 14 9 10 9 11 -2 5 -11 -6 -13 -4 -8 7 4 11 -2 17 -19 21 -13 2 -27 0
-30 -5 -7 -11 -23 -1 -20 15 1 6 6 18 10 26 7 10 6 12 -4 6 -10 -6 -12 -3 -8
13 8 28 -2 34 -27 16z"/>
<path d="M1862 1401 c-7 -4 -28 -7 -47 -6 -19 1 -32 -1 -30 -5 2 -4 -8 -13
-22 -19 -19 -9 -23 -15 -14 -20 7 -5 12 -11 12 -15 -2 -17 1 -17 24 -2 18 12
25 13 25 4 0 -8 3 -9 8 -3 10 14 56 20 48 6 -4 -6 -1 -9 6 -6 15 5 27 -2 48
-29 13 -18 13 -19 0 -11 -12 7 -13 6 -3 -6 18 -22 3 -35 -42 -38 -21 -1 -44
-6 -50 -10 -5 -5 -18 -7 -27 -6 -11 2 -18 -3 -18 -11 0 -9 -4 -13 -9 -10 -11
7 -42 -39 -44 -65 -1 -10 -4 -19 -7 -19 -4 0 -7 -7 -7 -15 0 -8 4 -15 9 -15 4
0 7 -3 7 -7 -3 -19 3 -32 24 -54 13 -13 27 -25 33 -26 5 -1 18 -5 28 -9 15 -6
17 -4 11 7 -8 12 -6 12 8 0 11 -8 17 -9 17 -3 0 6 6 9 13 6 7 -2 23 5 35 16
23 21 42 19 42 -4 0 -8 11 -12 27 -11 l27 1 0 137 c1 77 -3 137 -8 137 -5 0
-7 3 -3 6 7 7 -18 61 -37 79 -6 7 -17 10 -24 7 -6 -2 -12 2 -12 9 0 7 -3 9 -7
6 -3 -4 -11 -3 -17 3 -7 5 -17 5 -24 1z m63 -211 c7 -24 3 -80 -7 -80 -4 0 -8
-6 -8 -12 0 -7 -14 -21 -30 -30 -17 -9 -30 -13 -30 -7 0 5 -11 7 -25 5 -14 -3
-23 -1 -20 3 2 5 -2 14 -9 21 -15 12 -18 50 -3 50 4 0 6 4 2 9 -7 12 24 43 36
36 5 -4 9 -1 9 5 0 6 4 9 8 6 4 -2 13 -1 20 3 20 12 52 7 57 -9z"/>
<path d="M2065 1390 c-18 -6 -19 -17 -20 -184 0 -174 3 -195 33 -190 6 1 18 2
25 3 9 1 12 45 12 186 0 139 -3 184 -12 181 -6 -3 -13 -1 -15 3 -2 5 -12 5
-23 1z"/>
<path d="M940 1329 c0 -5 -3 -8 -7 -7 -13 4 -53 -26 -53 -39 0 -7 -4 -13 -10
-13 -13 0 -28 -58 -24 -95 4 -54 13 -76 41 -109 22 -27 37 -34 72 -37 24 -3
54 1 67 7 12 7 25 10 28 6 3 -3 6 -1 6 4 0 6 9 20 20 32 22 24 37 88 32 140
-2 18 -7 30 -13 27 -5 -3 -6 0 -3 8 3 8 -6 27 -20 42 -14 15 -26 24 -26 19 0
-5 -4 -3 -8 3 -9 14 -102 25 -102 12z m61 -43 c10 6 31 -12 46 -41 13 -26 14
-115 1 -115 -5 0 -8 -6 -6 -12 6 -18 -35 -48 -66 -48 -14 0 -34 10 -45 22 -20
21 -39 82 -32 103 2 6 3 18 3 28 0 10 4 15 10 11 7 -4 8 -2 4 5 -8 13 19 44
41 47 8 2 18 5 21 9 4 3 8 1 10 -4 2 -6 8 -9 13 -5z"/>
<path d="M402 1315 c-7 -8 -9 -15 -4 -15 5 0 9 -20 8 -45 0 -25 -4 -45 -9 -45
-4 0 -5 -6 0 -12 7 -11 12 -53 14 -111 0 -10 5 -15 11 -11 7 5 9 1 5 -9 -4
-11 -1 -17 8 -17 8 0 15 -4 15 -10 0 -5 12 -10 26 -10 17 0 23 -4 18 -12 -4
-7 2 -5 13 5 11 9 23 14 26 10 4 -3 14 2 22 13 8 10 15 15 15 9 0 -5 5 -3 10
5 8 12 10 11 10 -7 0 -13 4 -23 9 -23 19 0 41 12 36 20 -3 5 -1 12 5 15 8 5 7
12 -2 23 -10 12 -10 16 0 19 6 3 9 10 5 16 -12 20 -12 67 0 67 8 0 8 3 2 8
-15 10 -15 93 -1 85 6 -4 5 1 -2 10 -8 9 -11 21 -7 27 11 17 -42 11 -56 -7 -8
-9 -9 -14 -3 -10 8 4 10 -17 7 -71 -2 -42 -4 -86 -4 -96 0 -10 -7 -28 -15 -40
-7 -11 -14 -17 -14 -12 0 5 -6 3 -14 -3 -27 -23 -62 0 -76 51 -7 21 -6 36 1
45 6 7 7 13 2 13 -4 0 -9 23 -9 50 0 28 4 50 9 50 5 0 4 6 -2 13 -6 8 -8 17
-4 20 3 4 -5 7 -18 7 -13 -1 -30 -7 -37 -15z"/>
<path d="M72 974 c-6 -7 -6 -17 0 -27 6 -12 5 -17 -3 -17 -8 0 -8 -4 1 -15 10
-12 10 -15 -1 -15 -11 0 -11 -2 1 -10 8 -5 11 -10 5 -10 -5 0 -10 -19 -10 -42
0 -24 5 -46 10 -50 6 -5 4 -8 -5 -8 -13 0 -13 -1 0 -10 24 -16 2383 -13 2373
3 -12 20 -11 137 1 130 7 -5 7 -2 0 8 -6 8 -10 24 -8 36 2 12 -2 25 -8 30 -21
12 -2344 10 -2356 -3z m595 -62 c1 -10 -4 -19 -11 -19 -8 0 -11 8 -8 19 2 10
7 18 11 18 4 0 7 -8 8 -18z m561 -4 c-2 -15 2 -23 12 -24 25 -1 31 6 20 27 -6
10 -8 19 -6 19 3 0 10 -10 17 -21 8 -17 8 -23 -2 -30 -10 -6 -10 -11 0 -22 9
-12 9 -17 -1 -23 -7 -4 -10 -4 -6 1 10 10 -10 35 -28 35 -8 0 -11 -8 -9 -20 2
-11 0 -18 -4 -16 -4 3 -6 20 -5 38 1 18 3 39 3 46 1 6 4 12 7 12 3 0 4 -10 2
-22z m222 12 c0 -5 -4 -10 -10 -10 -5 0 -10 5 -10 10 0 6 5 10 10 10 6 0 10
-4 10 -10z m220 -5 c7 -8 9 -15 6 -15 -4 0 -14 7 -22 15 -9 8 -11 15 -6 15 5
0 15 -7 22 -15z m562 -33 c11 -2 18 5 21 20 4 20 4 20 6 -4 1 -25 -3 -28 -30
-28 -17 0 -28 4 -24 10 3 6 2 10 -3 10 -6 0 -7 10 -4 23 6 22 6 22 12 -3 3
-14 13 -26 22 -28z m-1984 31 c-1 -5 4 -21 11 -37 13 -33 8 -47 -8 -18 -6 11
-8 22 -4 25 3 4 -2 9 -11 13 -9 3 -13 10 -10 15 6 11 25 12 22 2z m242 -28 c0
-19 -4 -35 -8 -35 -4 0 -6 16 -4 35 2 19 6 35 8 35 2 0 4 -16 4 -35z m423 14
c4 -16 3 -18 -9 -8 -7 6 -11 15 -8 20 8 13 11 11 17 -12z m964 -3 c0 -8 -6
-12 -14 -9 -7 3 -13 11 -13 19 0 7 6 11 13 8 8 -3 14 -11 14 -18z m-1451 -10
c0 -13 -4 -22 -8 -20 -9 6 -6 44 3 44 4 0 6 -11 5 -24z m418 -1 c3 -8 1 -15
-4 -15 -6 0 -10 7 -10 15 0 8 2 15 4 15 2 0 6 -7 10 -15z m1213 -4 c0 -11 -5
-18 -9 -15 -4 3 -5 11 -1 19 7 21 12 19 10 -4z m-1830 2 c-4 -3 -2 -12 5 -20
8 -11 7 -12 -6 -7 -11 4 -16 1 -16 -12 0 -9 -2 -15 -5 -12 -9 9 6 58 18 58 6
0 7 -3 4 -7z m1403 -5 c0 -10 2 -10 9 0 6 11 10 10 19 -1 9 -11 7 -13 -11 -11
-12 1 -25 3 -29 3 -12 1 -9 21 2 21 6 0 10 -6 10 -12z m-160 -2 c0 -9 -40 -13
-46 -5 -3 5 6 9 20 9 14 0 26 -2 26 -4z m377 -16 c-1 -11 -5 -20 -9 -20 -3 0
-6 9 -5 20 1 11 5 20 9 20 3 0 6 -9 5 -20z m-1180 -12 c2 -17 0 -19 -7 -8 -5
8 -6 18 -4 22 8 12 10 10 11 -14z m247 13 c3 -5 -2 -15 -12 -22 -15 -13 -16
-12 -4 3 10 13 10 17 0 21 -9 4 -9 6 -1 6 6 1 14 -3 17 -8z m979 -13 c5 -21 5
-21 -7 -6 -7 10 -16 15 -19 11 -4 -3 -7 -1 -7 5 0 21 28 12 33 -10z m-1043 -9
c0 -6 -4 -7 -10 -4 -5 3 -10 11 -10 16 0 6 5 7 10 4 6 -3 10 -11 10 -16z
m1357 -1 c-3 -8 -6 -5 -6 6 -1 11 2 17 5 13 3 -3 4 -12 1 -19z m51 -3 c-3 -3
-9 2 -12 12 -6 14 -5 15 5 6 7 -7 10 -15 7 -18z m-818 11 c0 -3 -4 -8 -10 -11
-5 -3 -10 -1 -10 4 0 6 5 11 10 11 6 0 10 -2 10 -4z m-960 -10 c0 -2 -7 -7
-16 -10 -8 -3 -12 -2 -9 4 6 10 25 14 25 6z m987 -12 c-3 -3 -12 -4 -19 -1 -8
3 -5 6 6 6 11 1 17 -2 13 -5z"/>
</g>
</svg>
