<?xml version="1.0" standalone="no"?>
<!DOCTYPE svg PUBLIC "-//W3C//DTD SVG 20010904//EN"
 "http://www.w3.org/TR/2001/REC-SVG-20010904/DTD/svg10.dtd">
<svg version="1.0" xmlns="http://www.w3.org/2000/svg"
 width="839.000000pt" height="839.000000pt" viewBox="0 0 839.000000 839.000000"
 preserveAspectRatio="xMidYMid meet">
<metadata>
Created by potrace 1.14, written by Peter Selinger 2001-2017
</metadata>
<g transform="translate(0.000000,839.000000) scale(0.100000,-0.100000)"
fill="#000000" stroke="none">
<path d="M3010 5274 c-461 -48 -921 -200 -1249 -414 -73 -48 -116 -70 -128
-66 -10 3 -28 21 -40 40 -19 30 -31 36 -92 50 -96 22 -452 22 -577 1 -136 -24
-214 -70 -188 -112 23 -36 286 -112 463 -133 97 -11 131 -8 131 14 0 25 -27
36 -137 56 -60 11 -148 31 -196 45 -48 14 -89 25 -92 25 -3 0 -5 7 -5 15 0 8
15 17 38 22 43 9 256 8 421 -2 l114 -7 48 -44 c80 -76 141 -78 239 -9 378 266
999 435 1753 477 191 10 217 14 217 28 0 14 -15 18 -82 23 -136 11 -494 6
-638 -9z"/>
<path d="M2485 4753 c-441 -24 -1248 -137 -1556 -218 -395 -104 -691 -267
-828 -455 -90 -123 -101 -152 -101 -262 0 -53 5 -109 11 -125 11 -27 12 -26
29 42 46 178 99 281 199 382 146 149 363 249 740 343 164 41 192 46 416 85
404 69 913 121 1479 150 165 9 303 18 308 21 18 12 6 32 -23 38 -31 6 -557 5
-674 -1z"/>
<path d="M2615 4558 c-9 -46 -50 -234 -90 -418 -40 -184 -75 -346 -77 -360 -3
-25 -3 -25 93 -28 l96 -3 16 63 c9 35 19 75 23 91 6 27 7 27 90 27 59 0 86 -4
88 -12 2 -7 11 -48 21 -90 l17 -78 99 0 c57 0 99 4 99 10 0 5 -29 141 -65 302
-35 161 -72 327 -80 368 -9 41 -24 105 -33 143 l-16 67 -131 0 -132 0 -18 -82z
m170 -228 c9 -69 19 -149 22 -177 l6 -53 -47 0 c-30 0 -46 4 -46 13 0 6 9 80
20 162 11 83 20 159 20 169 0 47 10 1 25 -114z"/>
<path d="M5520 4195 l0 -446 98 3 97 3 5 275 5 275 34 -140 c18 -77 48 -201
65 -275 l33 -135 119 0 119 0 12 40 c6 22 28 110 47 195 20 85 44 186 54 225
l17 70 5 -265 5 -265 100 0 100 0 3 443 2 442 -139 0 c-124 0 -140 -2 -145
-17 -3 -10 -42 -162 -86 -338 -44 -176 -84 -328 -88 -337 -6 -16 -117 391
-170 625 l-15 67 -139 0 -138 0 0 -445z"/>
<path d="M3200 4220 l0 -379 30 -34 c40 -46 89 -57 250 -57 155 0 208 11 247
52 l28 29 3 385 3 384 -96 0 -95 0 0 -345 0 -345 -90 0 -90 0 0 345 0 345 -95
0 -95 0 0 -380z"/>
<path d="M3877 4593 c-4 -3 -7 -39 -7 -80 l0 -73 95 0 95 0 0 -345 0 -346 93
3 92 3 3 343 2 342 90 0 90 0 0 80 0 80 -273 0 c-151 0 -277 -3 -280 -7z"/>
<path d="M4605 4589 c-17 -4 -44 -22 -60 -39 l-30 -31 0 -344 0 -344 29 -30
c41 -43 102 -54 276 -49 161 4 203 16 233 67 15 26 17 66 17 356 0 311 -1 329
-20 360 -34 54 -77 65 -258 64 -86 0 -171 -5 -187 -10z m275 -414 l0 -265 -90
0 -90 0 0 265 0 265 90 0 90 0 0 -265z"/>
<path d="M6750 4595 c0 -3 -16 -79 -36 -168 -19 -89 -55 -254 -80 -367 -25
-113 -49 -224 -54 -247 -6 -23 -10 -47 -10 -52 0 -16 177 -14 187 2 4 6 15 46
23 87 l16 75 80 0 79 0 20 -85 21 -85 92 -3 c84 -3 92 -1 92 16 0 23 -154 735
-176 815 -5 15 -20 17 -130 17 -68 0 -124 -2 -124 -5z m150 -336 c11 -85 20
-160 20 -166 0 -9 -16 -13 -46 -13 -44 0 -45 1 -40 28 6 29 36 278 36 301 0 8
2 12 5 9 3 -3 14 -74 25 -159z"/>
<path d="M7300 4175 l0 -426 93 3 92 3 0 420 0 420 -92 3 -93 3 0 -426z"/>
<path d="M7795 4588 c-2 -7 -29 -130 -60 -273 -52 -240 -92 -423 -114 -518
-11 -48 -9 -49 99 -45 l83 3 21 85 21 85 79 0 80 0 16 -76 c9 -42 20 -81 24
-88 9 -14 186 -15 186 -1 0 5 -15 78 -34 162 -19 84 -60 271 -92 416 l-58 262
-123 0 c-90 0 -125 -3 -128 -12z m167 -460 l6 -48 -44 0 c-24 0 -44 3 -44 8 0
27 32 271 37 287 6 18 32 -121 45 -247z"/>
<path d="M385 4041 c-29 -4 -44 -10 -35 -14 8 -3 125 -15 260 -26 671 -56
1175 -125 1265 -174 19 -10 19 -11 -8 -18 -15 -4 -317 -13 -670 -19 -808 -14
-884 -9 -917 69 -10 26 -10 39 4 80 20 61 20 61 -1 61 -9 0 -33 -18 -54 -40
-46 -48 -61 -115 -35 -155 54 -82 278 -119 711 -118 264 1 557 13 878 38 145
11 183 17 210 34 88 54 59 135 -61 175 -85 28 -510 74 -882 95 -246 14 -606
21 -665 12z"/>
<path d="M4037 3713 c-3 -5 -12 -44 -22 -88 -9 -44 -19 -88 -22 -97 -3 -14 2
-18 21 -18 19 0 26 5 26 20 0 15 7 20 25 20 18 0 25 -5 25 -20 0 -15 7 -20 26
-20 18 0 25 4 21 14 -3 8 -13 55 -22 105 -17 89 -18 91 -45 91 -16 0 -31 -3
-33 -7z m33 -89 c0 -19 -4 -33 -8 -30 -8 5 -4 66 4 66 2 0 4 -16 4 -36z"/>
<path d="M4230 3631 c0 -68 4 -93 16 -105 18 -19 94 -22 112 -4 8 8 12 46 12
105 0 93 0 93 -25 93 -25 0 -25 -1 -25 -85 0 -78 -2 -85 -20 -85 -18 0 -20 7
-20 85 0 84 0 85 -25 85 -25 0 -25 -1 -25 -89z"/>
<path d="M4470 3700 c0 -13 7 -20 20 -20 17 0 19 -8 22 -82 3 -77 5 -83 26
-86 21 -3 22 -1 22 82 0 79 2 86 20 86 13 0 20 7 20 20 0 18 -7 20 -65 20 -58
0 -65 -2 -65 -20z"/>
<path d="M4702 3708 c-18 -18 -16 -172 2 -187 8 -7 36 -11 63 -9 l48 3 0 100
0 100 -50 3 c-30 2 -55 -2 -63 -10z m78 -93 c0 -58 -2 -65 -20 -65 -18 0 -20
7 -20 65 0 58 2 65 20 65 18 0 20 -7 20 -65z"/>
<path d="M5442 3618 c3 -98 4 -103 26 -106 20 -3 22 1 22 37 0 34 3 41 20 41
17 0 20 -7 20 -40 0 -36 3 -40 25 -40 22 0 25 4 25 39 0 22 -5 43 -10 46 -7 4
-7 12 0 25 11 21 13 60 4 84 -5 12 -21 16 -70 16 l-65 0 3 -102z m88 37 c0
-18 -5 -25 -20 -25 -15 0 -20 7 -20 25 0 18 5 25 20 25 15 0 20 -7 20 -25z"/>
<path d="M5690 3615 l0 -105 60 0 c53 0 60 2 60 20 0 16 -7 20 -35 20 -31 0
-35 3 -35 25 0 21 5 25 30 25 23 0 30 4 30 20 0 16 -7 20 -30 20 -23 0 -30 4
-30 20 0 16 7 20 35 20 28 0 35 4 35 20 0 18 -7 20 -60 20 l-60 0 0 -105z"/>
<path d="M5920 3615 c0 -98 1 -105 20 -105 17 0 20 7 20 40 0 37 2 40 28 40
48 0 64 19 60 75 l-3 50 -62 3 -63 3 0 -106z m88 43 c-2 -15 -11 -24 -25 -26
-19 -3 -23 1 -23 22 0 21 5 26 26 26 21 0 25 -4 22 -22z"/>
<path d="M6177 3693 c-12 -70 -29 -150 -33 -165 -4 -13 0 -18 16 -18 13 0 24
8 27 20 3 11 14 20 25 20 11 0 22 -9 25 -20 4 -13 14 -20 30 -20 18 0 24 4 19
15 -3 8 -13 55 -23 105 l-17 90 -32 0 c-27 0 -33 -4 -37 -27z m43 -69 c0 -19
-4 -33 -8 -30 -8 5 -4 66 4 66 2 0 4 -16 4 -36z"/>
<path d="M6390 3615 c0 -98 1 -105 20 -105 19 0 20 7 20 105 0 98 -1 105 -20
105 -19 0 -20 -7 -20 -105z"/>
<path d="M6550 3615 c0 -98 1 -105 20 -105 17 0 20 7 20 41 0 36 2 40 23 37
18 -2 23 -10 25 -40 2 -29 8 -38 22 -38 17 0 19 8 17 103 l-2 102 -62 3 -63 3
0 -106z m88 43 c-2 -15 -11 -24 -25 -26 -19 -3 -23 1 -23 22 0 21 5 26 26 26
21 0 25 -4 22 -22z"/>
<path d="M213 3503 c-35 -9 -63 -19 -63 -22 0 -3 16 -19 36 -35 27 -21 38 -25
44 -16 4 7 41 16 85 20 80 8 113 25 102 54 -8 21 -118 20 -204 -1z"/>
<path d="M1585 3459 c-49 -10 -106 -24 -125 -30 -83 -26 -231 -96 -305 -145
-92 -60 -208 -162 -199 -175 3 -5 30 -9 60 -9 51 0 60 4 107 43 91 76 174 125
288 171 130 51 170 56 584 67 477 12 2637 25 4759 27 1486 2 1580 3 1593 20 7
9 18 25 24 35 9 16 -153 17 -3343 16 -3276 0 -3355 -1 -3443 -20z"/>
<path d="M246 3406 c3 -7 17 -19 32 -27 15 -7 42 -24 61 -37 l34 -25 196 6
c249 8 321 16 328 34 3 8 1 19 -4 24 -7 7 -122 12 -299 13 -171 2 -302 7 -321
14 -25 8 -31 8 -27 -2z"/>
</g>
</svg>
