<svg xmlns="http://www.w3.org/2000/svg" viewBox="0 0 130 120" xml:space="preserve"><path fill="#D8D8D8" d="M-200-1350h2180V350H-200z"/><path fill="#DC4437" d="M0 0h130v13.3H0zM0 26.7h130V40H0zM0 80h130v13.3H0zM0 106.7h130V120H0zM0 53.3h130v13.3H0z"/><path fill="#FFF" d="M0 13.3h130v13.3H0zM0 40h130v13.3H0zM0 93.3h130v13.3H0zM0 66.7h130V80H0z"/><path fill="#2A66B7" d="M0 0h70v66.7H0z"/><path fill="#FFF" d="m13.5 4 2.3 4.9 5.2.8-3.8 3.9.9 5.4-4.6-2.6L8.9 19l.9-5.4L6 9.7l5.2-.8zM34 4l2.3 4.9 5.2.8-3.7 3.9.8 5.4-4.6-2.6-4.6 2.6.8-5.4-3.7-3.9 5.2-.8zM54.5 4l2.3 4.9 5.2.8-3.8 3.9.9 5.4-4.6-2.6-4.6 2.6.9-5.4L47 9.7l5.2-.8zM24 24l2.3 4.9 5.2.8-3.7 3.9.8 5.4-4.6-2.6-4.6 2.6.8-5.4-3.7-3.9 5.2-.8zM44.5 24l2.3 4.9 5.2.8-3.8 3.9.9 5.4-4.6-2.6-4.6 2.6.9-5.4-3.8-3.9 5.2-.8zM13.5 45.2l2.3 4.9 5.2.8-3.8 3.8.9 5.5-4.6-2.6-4.6 2.6.9-5.5L6 50.9l5.2-.8zM34 45.2l2.3 4.9 5.2.8-3.7 3.8.8 5.5-4.6-2.6-4.6 2.6.8-5.5-3.7-3.8 5.2-.8zM54.5 45.2l2.3 4.9 5.2.8-3.8 3.8.9 5.5-4.6-2.6-4.6 2.6.9-5.5-3.8-3.8 5.2-.8z"/></svg>