<svg fill="#d5282b" width="800" height="800" viewBox="0 0 122.88 122.88" xmlns="http://www.w3.org/2000/svg" style="enable-background:new 0 0 122.88 122.88" xml:space="preserve" stroke="#d5282b"><path d="M61.44 21.74c10.96 0 20.89 4.44 28.07 11.63 7.18 7.18 11.63 17.11 11.63 28.07S96.7 82.33 89.51 89.51c-7.18 7.18-17.11 11.63-28.07 11.63S40.55 96.7 33.37 89.51c-7.18-7.18-11.63-17.11-11.63-28.07s4.44-20.89 11.63-28.07c7.18-7.18 17.11-11.63 28.07-11.63zm0-21.74c16.97 0 32.33 6.88 43.44 18 11.12 11.12 18 26.48 18 43.44 0 16.97-6.88 32.33-18 43.44-11.12 11.12-26.48 18-43.44 18-16.97 0-32.33-6.88-43.44-18C6.88 93.77 0 78.41 0 61.44S6.88 29.11 18 18C29.11 6.88 44.47 0 61.44 0zm32.03 29.41c-8.2-8.2-19.52-13.27-32.03-13.27-12.51 0-23.83 5.07-32.03 13.27-8.2 8.2-13.27 19.52-13.27 32.03 0 12.51 5.07 23.83 13.27 32.03 8.2 8.2 19.52 13.27 32.03 13.27 12.51 0 23.83-5.07 32.03-13.27 8.2-8.2 13.27-19.52 13.27-32.03 0-12.51-5.07-23.83-13.27-32.03zM65.45 56.77a5.634 5.634 0 0 0-4.01-1.65c-1.57 0-2.99.63-4.01 1.65l-.01.01a5.634 5.634 0 0 0-1.65 4.01c0 1.57.63 2.99 1.65 4.01l.01.01a5.634 5.634 0 0 0 4.01 1.65c1.57 0 2.99-.63 4.01-1.65l.01-.01a5.652 5.652 0 0 0 1.65-4.01 5.726 5.726 0 0 0-1.66-4.02zm-.39-5.98c1.47.54 2.8 1.39 3.89 2.48.37.37.72.77 1.03 1.2l.1-.03 21.02-5.63a32.13 32.13 0 0 0-6.88-10.17c-5.03-5.03-11.72-8.41-19.17-9.24v21.12c.02.09.02.18.01.27zm6.98 10.84c-.14 1.73-.69 3.35-1.57 4.76.05.06.09.13.13.2l12.07 19.13c.54-.47 1.06-.96 1.57-1.47 5.83-5.83 9.44-13.9 9.44-22.8 0-1.87-.16-3.7-.47-5.49l-21.17 5.67zm-7.47 9.32c-.99.31-2.04.47-3.13.47-.98 0-1.93-.13-2.84-.38L46.82 90.19c4.39 2.24 9.36 3.5 14.62 3.5 5.46 0 10.6-1.36 15.11-3.75L64.57 70.95zm-12-4.31a10.45 10.45 0 0 1-1.7-4.71h-.01l-21.09-6.6c-.38 1.98-.58 4.02-.58 6.11a32.159 32.159 0 0 0 11.42 24.62l11.8-19.19c.06-.07.11-.15.16-.23zm.15-11.92c.36-.51.76-1 1.21-1.44a10.81 10.81 0 0 1 3.71-2.41c-.01-.11-.02-.23-.02-.34v-21.1c-7.38.87-14 4.23-18.98 9.22-2.75 2.75-5.01 6-6.63 9.6l20.71 6.47z"/></svg>